<svg xmlns="http://www.w3.org/2000/svg" viewBox="0 0 512 512">
  <defs>
    <linearGradient id="bg" x1="0" x2="1" y1="0" y2="1">
      <stop offset="0%" stop-color="#11261f"/>
      <stop offset="100%" stop-color="#1f7a5a"/>
    </linearGradient>
    <linearGradient id="plate" x1="0" x2="1" y1="0" y2="1">
      <stop offset="0%" stop-color="#fff8ef"/>
      <stop offset="100%" stop-color="#ffd7b5"/>
    </linearGradient>
  </defs>
  <rect width="512" height="512" rx="120" fill="url(#bg)"/>
  <circle cx="256" cy="268" r="144" fill="url(#plate)"/>
  <circle cx="256" cy="268" r="102" fill="#fffdf8"/>
  <path d="M198 252c14-48 100-64 130-18 22 35-6 91-50 104-63 18-104-24-80-86Z" fill="#f97316"/>
  <path d="M168 164c26-28 74-34 110-16-24 6-44 22-56 44-12 23-15 49-9 74-32-22-57-64-45-102Z" fill="#d9f5ea" opacity=".94"/>
  <path d="M338 150c26 34 33 78 16 118-7-28-23-50-48-68-23-16-49-25-74-26 25-25 72-40 106-24Z" fill="#ffe4cf" opacity=".94"/>
</svg>
